<mxfile host="app.diagrams.net" modified="2021-10-31T16:40:50.913Z" agent="5.0 (Windows)" etag="ErEhvVzHiZyj12c8LV8k" version="15.6.3" type="github">
  <diagram id="5ni_OW-WD-d_FD99dz9C" name="Page-1">
    <mxGraphModel dx="1422" dy="1594" grid="1" gridSize="10" guides="1" tooltips="1" connect="1" arrows="1" fold="1" page="1" pageScale="1" pageWidth="1169" pageHeight="827" math="0" shadow="0">
      <root>
        <mxCell id="0" />
        <mxCell id="1" parent="0" />
        <mxCell id="jDzC-xaB0_VsGPWmhapP-2" value="" style="rounded=0;whiteSpace=wrap;html=1;" parent="1" vertex="1">
          <mxGeometry x="160" y="80" width="838" height="190" as="geometry" />
        </mxCell>
        <mxCell id="jDzC-xaB0_VsGPWmhapP-7" value="XBox" style="rounded=1;whiteSpace=wrap;html=1;fillColor=#FFCCCC;" parent="1" vertex="1">
          <mxGeometry x="25" y="650" width="80" height="40" as="geometry" />
        </mxCell>
        <mxCell id="jDzC-xaB0_VsGPWmhapP-14" value="PS4" style="rounded=1;whiteSpace=wrap;html=1;fillColor=#FFCCCC;" parent="1" vertex="1">
          <mxGeometry x="1045" y="670" width="80" height="40" as="geometry" />
        </mxCell>
        <mxCell id="jDzC-xaB0_VsGPWmhapP-16" value="EOS" style="rounded=1;whiteSpace=wrap;html=1;fillColor=#FFFFCC;" parent="1" vertex="1">
          <mxGeometry x="530" y="520" width="80" height="40" as="geometry" />
        </mxCell>
        <mxCell id="jDzC-xaB0_VsGPWmhapP-18" value="Shield" style="rounded=1;whiteSpace=wrap;html=1;fillColor=#99FF99;" parent="1" vertex="1">
          <mxGeometry x="1045" y="520" width="80" height="40" as="geometry" />
        </mxCell>
        <mxCell id="jDzC-xaB0_VsGPWmhapP-19" value="Apple TV" style="rounded=1;whiteSpace=wrap;html=1;fillColor=#99FF99;" parent="1" vertex="1">
          <mxGeometry x="25" y="510" width="80" height="40" as="geometry" />
        </mxCell>
        <mxCell id="jDzC-xaB0_VsGPWmhapP-20" value="Nintendo" style="rounded=1;whiteSpace=wrap;html=1;fillColor=#99FF99;" parent="1" vertex="1">
          <mxGeometry x="850" y="20" width="80" height="40" as="geometry" />
        </mxCell>
        <mxCell id="jDzC-xaB0_VsGPWmhapP-21" value="VOCÃ‰" style="rounded=1;whiteSpace=wrap;html=1;" parent="1" vertex="1">
          <mxGeometry x="545" y="90" width="80" height="40" as="geometry" />
        </mxCell>
        <mxCell id="jDzC-xaB0_VsGPWmhapP-22" value="AVR" style="rounded=1;whiteSpace=wrap;html=1;fillColor=#FFCCCC;" parent="1" vertex="1">
          <mxGeometry x="260" y="210" width="80" height="40" as="geometry" />
        </mxCell>
        <mxCell id="r4hnLLNbTrT63BCs1FQV-1" style="edgeStyle=orthogonalEdgeStyle;rounded=0;orthogonalLoop=1;jettySize=auto;html=1;" edge="1" parent="1" source="jDzC-xaB0_VsGPWmhapP-24" target="jDzC-xaB0_VsGPWmhapP-28">
          <mxGeometry relative="1" as="geometry" />
        </mxCell>
        <mxCell id="jDzC-xaB0_VsGPWmhapP-24" value="AVEA" style="rounded=1;whiteSpace=wrap;html=1;fillColor=#99FF99;" parent="1" vertex="1">
          <mxGeometry x="30" y="240" width="80" height="40" as="geometry" />
        </mxCell>
        <mxCell id="r4hnLLNbTrT63BCs1FQV-2" style="edgeStyle=orthogonalEdgeStyle;rounded=0;orthogonalLoop=1;jettySize=auto;html=1;entryX=0.5;entryY=0;entryDx=0;entryDy=0;entryPerimeter=0;" edge="1" parent="1" source="jDzC-xaB0_VsGPWmhapP-25" target="jDzC-xaB0_VsGPWmhapP-29">
          <mxGeometry relative="1" as="geometry" />
        </mxCell>
        <mxCell id="r4hnLLNbTrT63BCs1FQV-6" style="edgeStyle=entityRelationEdgeStyle;rounded=0;orthogonalLoop=1;jettySize=auto;html=1;entryX=0;entryY=0;entryDx=15;entryDy=15;entryPerimeter=0;" edge="1" parent="1" source="jDzC-xaB0_VsGPWmhapP-26" target="jDzC-xaB0_VsGPWmhapP-29">
          <mxGeometry relative="1" as="geometry" />
        </mxCell>
        <mxCell id="jDzC-xaB0_VsGPWmhapP-25" value="AVEA" style="rounded=1;whiteSpace=wrap;html=1;fillColor=#99FF99;" parent="1" vertex="1">
          <mxGeometry x="1050" y="230" width="80" height="40" as="geometry" />
        </mxCell>
        <mxCell id="jDzC-xaB0_VsGPWmhapP-26" value="Subwoofer" style="rounded=1;whiteSpace=wrap;html=1;fillColor=#FFFFCC;" parent="1" vertex="1">
          <mxGeometry x="880" y="310" width="80" height="40" as="geometry" />
        </mxCell>
        <mxCell id="jDzC-xaB0_VsGPWmhapP-27" value="TV" style="rounded=1;whiteSpace=wrap;html=1;fillColor=#FFCCCC;" parent="1" vertex="1">
          <mxGeometry x="545" y="-70" width="80" height="40" as="geometry" />
        </mxCell>
        <mxCell id="jDzC-xaB0_VsGPWmhapP-28" value="SOCKET 1" style="whiteSpace=wrap;html=1;shape=mxgraph.basic.octagon2;align=center;verticalAlign=middle;dx=15;fillColor=#99FFFF;" parent="1" vertex="1">
          <mxGeometry x="25" y="400" width="90" height="80" as="geometry" />
        </mxCell>
        <mxCell id="jDzC-xaB0_VsGPWmhapP-29" value="&lt;div&gt;SOCKET 2&lt;/div&gt;" style="whiteSpace=wrap;html=1;shape=mxgraph.basic.octagon2;align=center;verticalAlign=middle;dx=15;fillColor=#99FFFF;" parent="1" vertex="1">
          <mxGeometry x="1045" y="390" width="90" height="80" as="geometry" />
        </mxCell>
        <mxCell id="r4hnLLNbTrT63BCs1FQV-3" value="" style="endArrow=none;html=1;rounded=0;entryX=0.25;entryY=0;entryDx=0;entryDy=0;exitX=0.25;exitY=1;exitDx=0;exitDy=0;" edge="1" parent="1">
          <mxGeometry width="50" height="50" relative="1" as="geometry">
            <mxPoint x="448.0000000000002" y="270" as="sourcePoint" />
            <mxPoint x="448.0000000000002" y="79.99999999999989" as="targetPoint" />
            <Array as="points">
              <mxPoint x="448" y="180" />
              <mxPoint x="448" y="120" />
            </Array>
          </mxGeometry>
        </mxCell>
        <mxCell id="r4hnLLNbTrT63BCs1FQV-4" value="" style="endArrow=none;html=1;rounded=0;entryX=0.25;entryY=0;entryDx=0;entryDy=0;exitX=0.25;exitY=1;exitDx=0;exitDy=0;" edge="1" parent="1">
          <mxGeometry width="50" height="50" relative="1" as="geometry">
            <mxPoint x="738.0000000000002" y="270" as="sourcePoint" />
            <mxPoint x="738.0000000000002" y="79.99999999999989" as="targetPoint" />
          </mxGeometry>
        </mxCell>
        <mxCell id="r4hnLLNbTrT63BCs1FQV-5" value="" style="endArrow=none;dashed=1;html=1;rounded=0;" edge="1" parent="1">
          <mxGeometry width="50" height="50" relative="1" as="geometry">
            <mxPoint x="590" y="700" as="sourcePoint" />
            <mxPoint x="590" y="-190" as="targetPoint" />
          </mxGeometry>
        </mxCell>
      </root>
    </mxGraphModel>
  </diagram>
</mxfile>
